<?xml version="1.0" standalone="no"?>
<!DOCTYPE svg PUBLIC "-//W3C//DTD SVG 20010904//EN"
 "http://www.w3.org/TR/2001/REC-SVG-20010904/DTD/svg10.dtd">
<svg version="1.0" xmlns="http://www.w3.org/2000/svg"
 width="360.000000pt" height="220.000000pt" viewBox="0 0 360.000000 220.000000"
 preserveAspectRatio="xMidYMid meet">

<g transform="translate(0.000000,220.000000) scale(0.100000,-0.100000)"
fill="#000000" stroke="none">
<path d="M476 1958 c-14 -23 -46 -180 -91 -458 -14 -85 -32 -184 -40 -220 -8
-36 -21 -99 -30 -141 l-16 -77 -46 -5 c-71 -8 -76 -33 -18 -98 l32 -36 -5
-211 c-5 -221 3 -298 38 -379 10 -23 30 -49 44 -58 25 -16 28 -16 54 1 15 9
39 31 53 47 17 19 32 28 42 24 23 -9 29 34 17 123 -13 102 -13 280 0 280 21 0
98 -45 217 -126 124 -85 140 -94 127 -71 -5 7 -1 7 12 -3 30 -22 30 -24 9 -16
-16 5 -15 2 5 -14 14 -11 29 -18 35 -16 5 1 14 -6 20 -17 5 -11 21 -27 35 -35
l25 -16 -24 27 c-14 15 -21 30 -18 34 4 3 7 1 7 -6 0 -7 5 -9 12 -5 6 4 8 3 5
-3 -4 -6 0 -13 7 -16 8 -3 16 -2 18 3 2 5 8 -2 15 -16 11 -23 10 -25 -5 -19
-13 5 -14 3 -5 -6 6 -6 22 -12 35 -13 14 -1 22 -7 20 -16 -2 -11 0 -11 11 -1
12 9 16 8 21 -4 3 -8 16 -15 28 -15 13 -1 41 -9 63 -20 41 -20 81 -25 110 -14
14 6 12 11 -11 35 -15 16 -24 29 -20 29 4 0 -5 11 -20 25 -20 18 -30 22 -40
14 -9 -8 -11 -6 -7 9 3 13 -4 24 -21 36 -14 9 -26 12 -26 6 0 -5 -5 -10 -11
-10 -6 0 -9 7 -6 15 9 22 -14 30 -30 10 -11 -16 -13 -16 -13 -3 0 9 6 19 13
21 9 4 8 8 -3 16 -18 13 -33 14 -26 2 4 -5 -2 -8 -11 -6 -10 2 -20 4 -22 4 -3
1 3 7 14 14 14 11 15 16 5 22 -8 5 -18 1 -27 -10 -7 -11 -13 -13 -13 -6 0 7
-4 10 -9 7 -4 -3 -19 6 -32 21 -13 14 -19 23 -12 19 17 -10 27 12 12 30 -6 8
-14 13 -16 11 -2 -2 -20 11 -40 29 -20 19 -45 36 -55 40 -10 3 -18 10 -18 15
0 5 -5 9 -11 9 -7 0 -17 6 -23 14 -6 7 -75 59 -154 116 l-143 103 23 26 c29
34 107 116 210 221 113 115 367 430 368 455 0 6 -5 17 -10 25 -9 13 -11 13
-19 0 -5 -8 -7 -19 -4 -25 3 -5 0 -5 -7 2 -9 9 -8 17 9 40 21 28 21 63 0 63
-5 0 -35 -24 -67 -54 -31 -30 -82 -73 -112 -97 -73 -56 -243 -201 -304 -258
-43 -41 -48 -43 -43 -21 3 14 11 66 17 115 7 50 20 131 31 180 33 158 34 186
9 235 -12 23 -32 53 -45 66 -32 31 -79 32 -99 2z m533 -343 c-54 -56 -77 -73
-43 -32 43 51 79 87 87 87 5 0 -14 -25 -44 -55z m41 11 c0 -2 -7 -9 -15 -16
-13 -11 -14 -10 -9 4 5 14 24 23 24 12z m-50 -53 c0 -5 -13 -17 -28 -27 l-27
-19 24 26 c26 28 31 32 31 20z m-76 -38 c-4 -9 -16 -21 -28 -27 -19 -10 -19
-9 3 16 28 30 33 32 25 11z m-57 -847 c-3 -8 -6 -5 -6 6 -1 11 2 17 5 13 3 -3
4 -12 1 -19z"/>
<path d="M2241 1664 c-38 -32 -39 -62 -3 -96 44 -41 61 -42 93 -8 38 39 39 81
3 109 -35 28 -56 26 -93 -5z"/>
<path d="M2972 1570 c-23 -10 -52 -64 -52 -99 0 -17 -5 -18 -39 -14 -48 7
-108 -25 -183 -95 l-48 -45 5 59 c5 53 2 65 -27 119 -29 53 -37 60 -66 63 -43
4 -68 -18 -84 -72 -6 -23 -15 -46 -20 -52 -4 -6 -17 -71 -28 -145 -31 -211
-26 -449 13 -527 11 -23 19 -27 51 -26 58 2 83 34 112 145 23 86 45 202 48
256 0 11 4 19 8 17 4 -2 9 5 13 16 4 11 17 28 31 36 13 9 22 20 19 24 -3 4 2
11 11 14 9 4 14 9 11 12 -3 3 15 24 39 46 42 39 58 66 32 53 -7 -4 1 5 17 19
33 28 55 33 55 13 0 -8 -7 -58 -15 -113 -17 -113 -20 -336 -5 -413 5 -29 17
-68 26 -87 14 -29 20 -33 43 -28 47 12 78 33 90 61 29 71 72 268 75 345 0 14
4 24 8 22 4 -2 9 5 13 16 4 11 17 28 31 36 13 9 22 20 19 24 -3 4 2 11 11 14
8 3 12 10 9 16 -3 5 -2 10 4 10 5 0 26 17 45 38 36 37 47 60 24 46 -10 -6 -10
-4 0 8 23 28 71 43 94 29 19 -12 20 -11 14 16 -20 83 -115 61 -239 -56 l-38
-36 6 55 c6 49 3 62 -27 120 -35 69 -56 80 -106 60z"/>
<path d="M1903 1539 c-146 -28 -257 -152 -236 -262 6 -35 100 -217 117 -229 6
-4 8 -8 3 -8 -4 0 5 -23 19 -52 15 -29 33 -68 40 -88 14 -33 12 -17 -3 39 -4
18 -3 22 8 17 10 -5 10 -4 -1 6 -8 7 -15 19 -16 26 -2 29 -5 33 -16 26 -7 -4
-8 -3 -4 4 4 7 9 12 11 12 4 0 41 -62 44 -75 1 -5 8 -17 16 -25 20 -23 27 -57
14 -66 -8 -4 -9 -3 -5 4 4 7 2 12 -4 12 -6 0 -10 -8 -9 -17 3 -31 -1 -38 -11
-23 -8 11 -9 8 -4 -13 16 -68 -24 -140 -99 -178 -69 -36 -135 -6 -157 72 -11
36 1 164 19 212 14 36 8 34 -19 -5 -12 -18 -19 -24 -15 -13 4 11 11 79 16 150
5 72 14 162 20 200 6 39 11 79 13 90 1 11 8 37 15 58 14 40 4 67 -25 67 -8 0
-14 5 -14 11 0 6 -7 9 -15 6 -8 -4 -17 -2 -20 4 -4 5 -11 6 -17 3 -6 -4 -14
-1 -18 6 -16 26 -58 -18 -100 -105 -41 -85 -56 -98 -80 -70 -23 28 -116 10
-162 -32 -10 -9 -28 -21 -41 -27 -72 -35 -141 -362 -108 -516 16 -74 40 -104
83 -104 60 0 101 44 172 184 34 69 71 148 81 175 10 28 22 55 25 60 4 6 8 27
8 48 1 21 8 59 15 85 8 26 12 61 10 79 -3 17 0 39 6 50 10 18 8 -149 -4 -259
-7 -60 11 -254 31 -332 8 -33 25 -78 37 -100 19 -35 28 -42 62 -46 22 -3 57
-13 77 -23 21 -9 46 -17 57 -17 11 0 22 -4 25 -9 6 -9 -60 -5 -84 6 -8 4 -23
7 -32 8 -14 2 -15 -1 -7 -16 5 -11 12 -19 15 -19 3 0 2 4 -1 10 -3 5 -1 10 5
10 6 0 13 -7 16 -15 4 -8 10 -12 15 -9 5 3 9 1 9 -4 0 -10 18 -12 98 -11 90 0
229 88 264 167 28 63 27 168 -1 255 -12 36 -58 127 -102 202 -69 119 -80 142
-75 170 6 28 12 34 50 45 24 6 52 11 62 10 35 -4 42 0 63 34 36 57 27 117 -20
141 -31 16 -52 17 -116 4z m-343 -53 c0 -3 -4 -8 -10 -11 -5 -3 -10 -1 -10 4
0 6 5 11 10 11 6 0 10 -2 10 -4z m-213 -312 c8 -21 -121 -333 -133 -321 -8 7
16 213 31 264 8 29 23 57 33 62 26 16 62 13 69 -5z m180 -396 c-3 -8 -6 -5 -6
6 -1 11 2 17 5 13 3 -3 4 -12 1 -19z m10 -55 c-3 -10 -5 -4 -5 12 0 17 2 24 5
18 2 -7 2 -21 0 -30z m333 -138 c-7 -8 -18 -15 -24 -15 -6 0 -2 7 8 15 25 19
32 19 16 0z m-45 -24 c-15 -13 -65 -23 -65 -12 0 5 10 12 23 14 40 8 51 7 42
-2z"/>
<path d="M2238 1397 c-58 -23 -88 -159 -88 -404 0 -180 14 -273 55 -353 20
-40 30 -50 50 -50 14 0 26 3 26 8 1 4 3 21 4 37 14 129 30 234 38 255 3 8 11
72 16 142 6 70 18 147 27 170 29 78 28 81 -17 141 -23 32 -45 57 -50 57 -4 0
-13 2 -21 4 -7 2 -25 -1 -40 -7z"/>
<path d="M991 616 c-13 -15 1 -32 18 -22 5 4 12 0 14 -6 3 -8 6 -5 6 6 1 13
-4 16 -15 12 -12 -4 -15 -2 -10 9 7 19 2 19 -13 1z"/>
</g>
</svg>
